<?xml version="1.0" standalone="no"?>
<!DOCTYPE svg PUBLIC "-//W3C//DTD SVG 20010904//EN"
 "http://www.w3.org/TR/2001/REC-SVG-20010904/DTD/svg10.dtd">
<svg version="1.0" xmlns="http://www.w3.org/2000/svg"
 width="16.000000pt" height="16.000000pt" viewBox="0 0 16.000000 16.000000"
 preserveAspectRatio="xMidYMid meet">
<metadata>
Created by potrace 1.11, written by Peter Selinger 2001-2013
</metadata>
<g transform="translate(0.000000,16.000000) scale(0.008421,-0.008421)"
fill="#000000" stroke="none">
<path d="M110 1502 c0 -7 -3 -11 -7 -9 -5 3 -18 1 -30 -4 -16 -6 -20 -13 -15
-31 5 -21 4 -22 -12 -9 -15 12 -17 12 -14 0 2 -8 8 -17 13 -21 6 -5 5 -8 -2
-8 -7 0 -13 -5 -13 -11 0 -5 5 -7 10 -4 6 3 10 1 10 -4 0 -6 -5 -11 -11 -11
-8 0 -7 -5 1 -15 10 -12 10 -19 2 -27 -7 -7 -12 -19 -12 -27 0 -14 1 -14 10
-1 5 8 10 11 10 7 0 -4 -7 -18 -16 -31 -11 -18 -12 -26 -3 -32 8 -5 9 -3 4 6
-5 9 -4 11 3 6 17 -10 15 -26 -3 -26 -8 0 -15 -5 -15 -11 0 -5 4 -7 10 -4 5 3
10 1 10 -5 0 -6 5 -8 13 -4 8 5 8 2 -2 -9 -7 -9 -10 -17 -7 -17 4 0 0 -10 -8
-22 -14 -20 -14 -24 2 -41 16 -18 16 -20 -8 -39 -21 -18 -22 -20 -5 -14 16 5
21 1 22 -16 2 -16 0 -19 -6 -10 -6 10 -10 8 -14 -7 -3 -13 1 -25 11 -31 16 -9
16 -9 0 -10 -10 0 -18 -5 -18 -11 0 -5 4 -7 10 -4 5 3 10 1 10 -5 0 -6 5 -8
12 -4 9 5 9 2 -1 -9 -7 -9 -10 -17 -7 -17 4 0 0 -10 -8 -22 -14 -20 -14 -24 2
-41 16 -18 16 -20 -8 -39 -21 -18 -22 -20 -5 -14 16 5 21 1 22 -16 2 -16 0
-19 -6 -10 -6 10 -10 8 -14 -7 -3 -13 1 -25 11 -31 16 -9 16 -9 0 -10 -10 0
-18 -5 -18 -11 0 -5 4 -7 10 -4 5 3 10 1 10 -5 0 -6 5 -8 12 -4 9 5 9 2 -1 -9
-7 -9 -10 -17 -7 -17 4 0 0 -10 -8 -22 -14 -20 -14 -24 2 -41 16 -18 16 -20
-8 -39 -21 -18 -22 -20 -5 -14 16 5 21 1 22 -16 2 -16 0 -19 -6 -10 -6 10 -10
8 -14 -7 -3 -13 1 -25 11 -31 16 -9 16 -9 0 -10 -10 0 -18 -5 -18 -11 0 -5 4
-7 10 -4 5 3 10 1 10 -5 0 -6 5 -8 13 -4 9 6 9 4 1 -7 -6 -8 -10 -22 -9 -32 2
-9 0 -15 -5 -12 -4 3 -11 -2 -14 -10 -3 -9 1 -18 9 -21 8 -4 15 -13 15 -22 0
-12 3 -13 12 -4 15 15 28 15 28 1 0 -5 -4 -7 -10 -4 -6 3 -7 -1 -3 -10 4 -12
8 -13 13 -5 5 7 13 9 20 5 9 -5 11 -4 6 4 -6 9 0 10 21 5 15 -4 33 -7 38 -8 6
0 14 -5 18 -11 5 -6 7 -3 3 7 -7 22 7 23 24 3 9 -11 16 -12 26 -4 7 6 19 7 26
3 8 -5 8 -1 -2 11 -14 17 -14 18 8 6 12 -6 30 -11 40 -9 10 2 16 -3 14 -10 -1
-8 2 -11 8 -7 6 4 9 13 6 21 -3 8 0 11 9 7 8 -3 13 -9 10 -13 -3 -5 0 -12 6
-16 8 -5 9 -3 4 6 -6 10 -4 12 10 6 16 -6 16 -4 4 11 -13 17 -13 17 14 0 26
-17 27 -17 28 0 0 11 3 13 6 6 6 -17 63 -17 63 0 0 8 4 7 10 -3 5 -8 10 -10
10 -4 0 14 30 14 30 0 0 -6 4 -5 9 3 10 15 28 20 93 24 20 1 36 4 36 7 -1 18
4 21 18 10 8 -8 14 -9 13 -4 -4 21 2 26 18 13 10 -9 14 -9 10 -2 -10 16 25 34
44 22 12 -7 12 -9 0 -9 -11 0 -9 -5 5 -22 14 -16 14 -19 2 -10 -14 12 -16 10
-11 -8 3 -11 8 -18 11 -15 3 3 12 -5 20 -17 l13 -23 -5 25 c-5 24 -4 24 9 6
11 -14 15 -16 15 -5 1 10 5 8 16 -6 16 -19 16 -19 9 5 l-7 25 27 -25 28 -25
-13 25 -13 25 23 -20 c13 -11 20 -15 17 -9 -12 20 25 25 46 7 11 -10 17 -12
13 -6 -4 7 -2 13 3 13 6 0 11 -6 11 -12 1 -9 4 -8 13 2 7 8 27 16 46 17 40 3
49 14 46 54 -1 16 2 29 9 29 7 0 6 4 -2 9 -8 4 -14 12 -14 16 0 4 6 12 14 16
7 5 8 9 2 9 -14 0 -14 30 0 30 6 0 5 4 -2 9 -17 11 -17 21 0 32 11 8 11 10 0
18 -8 4 -14 12 -14 16 0 4 6 12 14 16 7 5 8 9 3 9 -6 0 -11 14 -10 30 0 17 4
30 9 30 5 0 4 6 -3 13 -7 10 -7 17 0 24 8 8 7 13 -1 18 -8 5 -6 13 6 26 17 19
17 20 -1 13 -17 -7 -18 -6 -5 8 14 14 16 14 27 -6 11 -19 12 -19 13 -2 0 15 3
16 15 6 10 -9 15 -9 15 -1 0 11 34 10 46 -1 9 -9 57 2 67 15 6 8 7 6 3 -5 -3
-12 0 -18 10 -18 8 0 13 4 10 8 -3 5 14 8 38 7 32 0 49 -7 72 -30 16 -16 22
-23 13 -17 -13 9 -15 7 -15 -16 1 -15 5 -30 10 -34 17 -12 16 -43 -1 -55 -11
-8 -12 -13 -4 -13 7 0 9 -5 5 -12 -11 -17 -12 -48 -2 -42 4 3 8 1 8 -5 0 -5
-6 -12 -12 -14 -7 -3 -4 -6 7 -6 15 -1 17 -3 6 -10 -9 -6 -10 -11 -3 -15 12
-7 4 -37 -12 -48 -7 -5 -3 -8 9 -8 15 0 17 -2 6 -9 -10 -6 -10 -10 -1 -16 8
-5 6 -13 -7 -28 -17 -19 -17 -20 0 -14 9 4 17 2 17 -3 0 -6 -7 -10 -15 -10 -8
0 -15 -4 -15 -9 0 -6 9 -8 19 -6 16 3 19 -1 15 -23 -5 -26 -5 -26 10 -7 11 14
15 16 16 6 0 -11 4 -10 13 4 11 14 16 15 22 5 5 -8 4 -11 -2 -7 -5 3 -10 0
-10 -8 0 -11 4 -12 13 -4 7 6 19 7 26 3 8 -5 8 -1 -2 11 -14 17 -14 18 8 6 12
-6 30 -11 40 -9 10 2 16 -3 14 -10 -1 -8 2 -11 8 -7 6 4 9 14 6 24 -4 9 3 5
16 -9 12 -14 19 -18 15 -8 -7 19 19 33 29 16 5 -7 2 -8 -6 -3 -9 6 -11 4 -6
-4 6 -10 12 -9 24 2 10 7 28 14 41 15 13 0 26 4 29 7 3 3 6 64 6 135 -1 91 2
127 10 123 8 -5 8 -3 0 8 -16 22 -19 83 -3 74 9 -6 10 -4 3 6 -14 21 -14 400
0 392 8 -5 8 -3 0 8 -5 8 -11 29 -13 48 -2 26 0 31 11 25 10 -6 11 -4 2 7 -5
8 -11 29 -13 48 -2 26 0 31 11 25 10 -6 11 -4 2 7 -16 22 -19 83 -3 74 9 -6
10 -4 3 6 -8 13 -10 22 -13 69 -1 13 -8 20 -22 20 -13 0 -18 4 -13 13 6 9 4 9
-7 1 -20 -15 -61 -16 -52 -1 5 9 3 9 -8 1 -16 -13 -78 -13 -98 0 -10 6 -12 6
-7 -2 4 -8 -4 -10 -28 -9 -45 4 -80 -9 -72 -28 3 -8 0 -17 -6 -21 -7 -5 -8 -2
-3 6 5 9 4 11 -4 6 -6 -4 -8 -13 -4 -19 11 -18 14 -45 4 -51 -4 -3 -7 5 -6 18
3 23 -15 30 -32 12 -4 -4 -1 -6 7 -4 11 2 15 -5 14 -25 -1 -19 3 -27 12 -23
17 6 9 -34 -8 -46 -10 -6 -10 -8 0 -8 8 0 10 -5 5 -12 -4 -7 -8 -47 -8 -88 0
-41 -4 -81 -9 -89 -7 -10 -6 -12 4 -6 8 5 11 3 8 -6 -6 -17 -70 -21 -80 -5 -6
8 -8 8 -8 0 0 -6 -11 -11 -25 -11 -14 0 -25 5 -25 11 0 8 -2 8 -8 0 -4 -6 -16
-11 -27 -11 -11 0 -23 5 -27 11 -6 8 -8 8 -8 0 0 -6 -11 -11 -25 -11 -14 0
-25 5 -25 11 0 6 -5 4 -10 -4 -9 -13 -11 -13 -20 0 -6 10 -10 11 -10 3 0 -7
-5 -13 -11 -13 -5 0 -7 5 -4 10 3 6 1 10 -5 10 -7 0 -8 6 -1 19 6 10 8 21 5
23 -11 12 -12 48 -1 48 8 0 8 3 -2 9 -9 6 -10 10 -2 16 9 5 9 10 0 21 -9 11
-8 14 2 14 12 0 12 2 1 9 -17 11 -17 21 0 32 8 6 9 9 1 9 -12 0 -12 17 0 38 5
7 3 12 -3 12 -7 0 -8 6 0 19 7 14 7 22 0 26 -8 5 -8 11 0 20 8 9 8 15 0 20 -6
3 -8 10 -6 14 3 4 2 11 -2 16 -10 14 -56 39 -48 27 3 -6 -9 -9 -29 -9 -19 1
-35 6 -35 12 0 7 -3 7 -8 -1 -9 -13 -105 -13 -114 0 -5 8 -8 7 -8 0 0 -6 -11
-11 -24 -11 -14 0 -33 -8 -42 -18 -15 -14 -15 -18 -3 -26 11 -7 11 -9 1 -9 -7
0 -10 -5 -6 -12 5 -7 3 -8 -6 -3 -7 4 -20 9 -29 10 -9 1 -29 7 -46 15 -33 14
-53 21 -72 22 -7 1 -13 4 -13 7 0 3 -21 7 -47 9 -25 1 -53 8 -62 15 -8 7 -12
7 -8 1 4 -7 -7 -11 -33 -11 -22 0 -40 5 -40 11 0 7 -3 7 -8 -1 -8 -13 -29 -12
-51 1 -9 6 -12 5 -7 -2 9 -14 -54 -13 -73 2 -11 8 -13 8 -8 0 5 -8 -12 -11
-53 -11 -35 0 -60 5 -60 11 0 8 -3 7 -8 0 -4 -6 -16 -11 -27 -11 -11 0 -23 5
-27 11 -5 7 -8 7 -8 -2z m1350 -222 c0 -5 -2 -10 -4 -10 -3 0 -8 5 -11 10 -3
6 -1 10 4 10 6 0 11 -4 11 -10z m-1020 -59 c0 9 7 16 15 16 10 0 12 -4 5 -12
-11 -14 25 -14 37 0 5 4 2 5 -6 0 -10 -6 -12 -4 -7 4 5 8 12 9 19 3 7 -5 20
-8 30 -7 9 2 15 -1 11 -6 -3 -5 -10 -6 -16 -3 -6 4 -8 2 -4 -4 3 -6 15 -9 25
-7 19 4 36 -19 26 -35 -3 -5 8 -7 25 -5 17 2 29 1 26 -3 -3 -5 -1 -14 4 -22 5
-8 4 -22 -2 -34 -6 -12 -7 -18 -3 -14 13 12 34 -12 28 -30 -6 -15 -4 -15 10
-4 14 12 15 11 7 -17 -7 -25 -6 -31 7 -31 9 0 13 -3 10 -7 -4 -3 -1 -13 5 -22
9 -11 5 -10 -9 2 -21 18 -21 18 -16 -2 3 -12 13 -22 22 -22 13 -1 13 -2 -2 -6
-9 -2 -15 -9 -11 -14 3 -5 10 -6 16 -3 7 4 8 2 4 -5 -4 -6 -11 -9 -15 -7 -4 3
-13 0 -21 -6 -13 -8 -12 -9 2 -5 24 8 30 -4 10 -20 -16 -12 -16 -13 1 -7 24 8
21 -8 -4 -24 -16 -11 -18 -16 -9 -27 7 -8 17 -12 23 -8 6 3 7 1 3 -6 -4 -6
-12 -9 -17 -6 -5 3 -6 -1 -3 -9 3 -9 1 -16 -6 -16 -6 0 -8 -5 -4 -12 5 -7 2
-9 -9 -5 -11 4 -14 2 -10 -8 3 -8 10 -12 16 -8 6 3 7 1 3 -5 -4 -7 -14 -12
-22 -12 -8 0 -12 -4 -9 -10 3 -5 1 -10 -5 -10 -6 0 -9 -4 -6 -8 7 -11 -51 -45
-64 -37 -6 3 -10 2 -10 -4 0 -5 -9 -8 -20 -6 -11 2 -20 1 -20 -3 0 -10 -103
-8 -119 2 -10 6 -12 6 -7 -2 5 -8 1 -10 -9 -5 -12 4 -16 14 -13 34 3 16 1 29
-4 29 -5 0 -6 5 -2 12 10 16 11 68 1 68 -5 0 -5 5 -1 12 10 16 11 68 1 68 -5
0 -5 5 -1 11 3 6 6 79 5 162 0 84 2 159 5 169 5 17 27 19 41 3 4 -4 2 -5 -6 0
-10 5 -12 4 -7 -4 10 -15 26 -4 26 17 1 12 5 10 15 -8 9 -16 14 -20 15 -9z
m1020 -21 c0 -5 -2 -10 -4 -10 -3 0 -8 5 -11 10 -3 6 -1 10 4 10 6 0 11 -4 11
-10z m-850 -14 c0 -3 -4 -8 -10 -11 -5 -3 -10 -1 -10 4 0 6 5 11 10 11 6 0 10
-2 10 -4z m846 -47 c1 -16 -1 -27 -4 -24 -3 3 -6 19 -7 35 -1 16 1 27 4 24 3
-3 6 -19 7 -35z m-1406 21 c0 -5 -5 -10 -11 -10 -5 0 -7 5 -4 10 3 6 8 10 11
10 2 0 4 -4 4 -10z m617 -66 c-9 -9 -28 6 -21 18 4 6 10 6 17 -1 6 -6 8 -13 4
-17z m-617 -174 c0 -5 -5 -10 -11 -10 -5 0 -7 5 -4 10 3 6 8 10 11 10 2 0 4
-4 4 -10z m630 -70 c0 -5 -5 -10 -11 -10 -5 0 -7 5 -4 10 3 6 8 10 11 10 2 0
4 -4 4 -10z m584 -8 c3 -5 -1 -9 -9 -9 -8 0 -12 4 -9 9 3 4 7 8 9 8 2 0 6 -4
9 -8z m186 -6 c0 -3 -4 -8 -10 -11 -5 -3 -10 -1 -10 4 0 6 5 11 10 11 6 0 10
-2 10 -4z m10 -76 c0 -5 -2 -10 -4 -10 -3 0 -8 5 -11 10 -3 6 -1 10 4 10 6 0
11 -4 11 -10z m-1410 -80 c0 -5 -5 -10 -11 -10 -5 0 -7 5 -4 10 3 6 8 10 11
10 2 0 4 -4 4 -10z m1410 -40 c0 -5 -2 -10 -4 -10 -3 0 -8 5 -11 10 -3 6 -1
10 4 10 6 0 11 -4 11 -10z m-1210 -245 c0 -12 -19 -12 -23 0 -4 9 -1 12 9 8 7
-3 14 -7 14 -8z"/>
<path d="M20 1359 c0 -5 5 -7 10 -4 6 3 10 8 10 11 0 2 -4 4 -10 4 -5 0 -10
-5 -10 -11z"/>
<path d="M1430 1339 c0 -5 5 -7 10 -4 6 3 10 8 10 11 0 2 -4 4 -10 4 -5 0 -10
-5 -10 -11z"/>
<path d="M25 1211 c-3 -5 -2 -12 3 -15 5 -3 9 1 9 9 0 17 -3 19 -12 6z"/>
<path d="M20 1119 c0 -5 5 -7 10 -4 6 3 10 8 10 11 0 2 -4 4 -10 4 -5 0 -10
-5 -10 -11z"/>
<path d="M25 971 c-3 -5 -2 -12 3 -15 5 -3 9 1 9 9 0 17 -3 19 -12 6z"/>
<path d="M20 879 c0 -5 5 -7 10 -4 6 3 10 8 10 11 0 2 -4 4 -10 4 -5 0 -10 -5
-10 -11z"/>
<path d="M1196 813 c-6 -14 -5 -15 5 -6 7 7 10 15 7 18 -3 3 -9 -2 -12 -12z"/>
<path d="M25 731 c-3 -5 -2 -12 3 -15 5 -3 9 1 9 9 0 17 -3 19 -12 6z"/>
<path d="M1430 700 c0 -5 5 -10 10 -10 6 0 10 5 10 10 0 6 -4 10 -10 10 -5 0
-10 -4 -10 -10z"/>
<path d="M20 639 c0 -5 5 -7 10 -4 6 3 10 8 10 11 0 2 -4 4 -10 4 -5 0 -10 -5
-10 -11z"/>
<path d="M25 491 c-3 -5 -2 -12 3 -15 5 -3 9 1 9 9 0 17 -3 19 -12 6z"/>
<path d="M570 401 c0 -6 4 -13 10 -16 6 -3 7 1 4 9 -7 18 -14 21 -14 7z"/>
<path d="M950 390 c0 -5 5 -10 10 -10 6 0 10 5 10 10 0 6 -4 10 -10 10 -5 0
-10 -4 -10 -10z"/>
<path d="M1043 385 c0 -8 4 -12 9 -9 5 3 6 10 3 15 -9 13 -12 11 -12 -6z"/>
</g>
</svg>
